<svg xmlns="http://www.w3.org/2000/svg" viewBox="0 0 683.88 654.52"><defs><style>.cls-1{font-size:38.44px;fill:#fff;}.cls-1,.cls-6,.cls-7{font-family:LucidaGrande-Bold, Lucida Grande;font-weight:700;}.cls-2,.cls-3{font-size:29.9px;}.cls-3{letter-spacing:0em;}.cls-4{letter-spacing:0em;}.cls-5{fill:none;stroke:#fc805d;stroke-miterlimit:10;}.cls-6{font-size:18px;}.cls-6,.cls-7{fill:#fc805d;}.cls-7{font-size:14px;}</style></defs><g id="Layer_2" data-name="Layer 2"><g id="background"><text class="cls-1" transform="translate(10.32 33.11)">O<tspan class="cls-2" x="31.65" y="0">PERATIONAL</tspan><tspan x="228.12" y="0" xml:space="preserve"> H</tspan><tspan class="cls-2" x="270.79" y="0">OTELS</tspan><tspan x="368.46" y="0" xml:space="preserve"> &amp; C</tspan><tspan class="cls-3" x="449.81" y="0">LUSTER</tspan><tspan class="cls-4" x="565.51" y="0" xml:space="preserve"> S</tspan><tspan class="cls-3" x="600.14" y="0">ITES</tspan></text><line class="cls-5" x1="37.43" y1="68.34" x2="668.93" y2="68.34"/><line class="cls-5" x1="37.43" y1="245.25" x2="668.93" y2="245.25"/><line class="cls-5" x1="37.43" y1="427.02" x2="668.93" y2="427.02"/><line class="cls-5" x1="37.43" y1="606.3" x2="668.93" y2="606.3"/></g><g id="numbers"><text class="cls-6" transform="translate(22.76 611.34)">0</text><text class="cls-6" transform="translate(0 430.34)">100</text><text class="cls-6" transform="translate(0 249.91)">200</text><text class="cls-6" transform="translate(0 72.91)">300</text><text class="cls-7" transform="translate(23.43 650.17) rotate(-45)">2016</text><text class="cls-7" transform="translate(129.4 650.17) rotate(-45)">2017</text><text class="cls-7" transform="translate(237.4 650.17) rotate(-45)">2018</text><text class="cls-7" transform="translate(340.4 650.17) rotate(-45)">2019</text><text class="cls-7" transform="translate(444.4 650.17) rotate(-45)">2020</text><text class="cls-7" transform="translate(552.4 650.17) rotate(-45)">2021</text><text class="cls-7" transform="translate(653.4 650.17) rotate(-45)">2022</text></g></g></svg>