<svg xmlns="http://www.w3.org/2000/svg" viewBox="0 0 1253.59 762.19"><defs><style>.cls-1{font-size:28.58px;}.cls-1,.cls-9{fill:#fff;}.cls-1,.cls-6,.cls-7{font-family:LucidaGrande-Bold, Lucida Grande;font-weight:700;}.cls-2,.cls-3{font-size:22.23px;}.cls-3{letter-spacing:0em;}.cls-12,.cls-4,.cls-5,.cls-8{fill:none;stroke-miterlimit:10;}.cls-4,.cls-5{stroke:#fc805d;}.cls-4{stroke-width:1.37px;}.cls-5{stroke-width:1.89px;}.cls-6{font-size:24px;}.cls-6,.cls-7{fill:#fc805d;}.cls-7{font-size:18px;}.cls-8{stroke:#80c2c3;stroke-width:5px;}.cls-9{font-size:20.73px;font-family:LucidaGrande, Lucida Grande;}.cls-10,.cls-11{font-size:16.12px;}.cls-11{letter-spacing:0em;}.cls-12{stroke:#fff;stroke-width:2px;}</style></defs><g id="Layer_2" data-name="Layer 2"><g id="background"><text class="cls-1" transform="translate(59.86 24.62)">O<tspan class="cls-2" x="23.53" y="0">PERATIONAL </tspan><tspan x="176.93" y="0" xml:space="preserve"> H</tspan><tspan class="cls-3" x="208.65" y="0">OTELS</tspan><tspan x="281.27" y="0" xml:space="preserve"> &amp; C</tspan><tspan class="cls-2" x="341.75" y="0">LUSTER</tspan><tspan x="427.77" y="0" xml:space="preserve"> S</tspan><tspan class="cls-2" x="453.52" y="0">ITES</tspan></text></g><g id="numbers"><line class="cls-4" x1="53.21" y1="54.39" x2="1244.38" y2="54.39"/><line class="cls-4" x1="49.43" y1="273.3" x2="1240.6" y2="273.3"/><line class="cls-4" x1="49.43" y1="496.07" x2="1240.6" y2="496.07"/><line class="cls-5" x1="47.43" y1="714.35" x2="1241.38" y2="714.35"/><text class="cls-6" transform="translate(20.76 723.39)">0</text><text class="cls-6" transform="translate(0 503.39)">100</text><text class="cls-6" transform="translate(0 281.96)">200</text><text class="cls-6" transform="translate(2 62.96)">300</text><text class="cls-7" transform="translate(43.43 756.59) rotate(-45)">2016</text><text class="cls-7" transform="translate(239.4 756.59) rotate(-45)">2017</text><text class="cls-7" transform="translate(436.4 756.59) rotate(-45)">2018</text><text class="cls-7" transform="translate(627.4 756.59) rotate(-45)">2019</text><text class="cls-7" transform="translate(824.4 756.59) rotate(-45)">2020</text><text class="cls-7" transform="translate(1020.4 756.59) rotate(-45)">2021</text><text class="cls-7" transform="translate(1214.4 756.59) rotate(-45)">2022</text></g><g id="bedcobx-line"><polyline class="cls-8" points="166.88 650.69 188.88 650.69 195.88 647.69 212.88 646.69 241.88 646.69 248.88 646.69 266.88 654.69 295.88 655.69 308.88 660.69 326.88 665.69 337.88 670.69 351.88 673.69 362.88 673.69 378.88 675.69 392.88 677.69 403.88 671.69 413.88 667.69 433.88 669.69 446.88 670.69 460.88 676.69 638.88 677.69 653.88 679.69 679.88 679.69 702.88 680.69 716.88 689.69 882.88 689.69 888.88 691.69 986.88 691.69 1003.88 698.69 1013.88 701.69 1171.88 700.69"/></g><g id="bedcobx-label"><text class="cls-9" transform="translate(351.74 618.49)">B<tspan class="cls-10" x="11.92" y="0">EDCO</tspan><tspan x="56.42" y="0" xml:space="preserve"> - B</tspan><tspan class="cls-11" x="93.45" y="0">RONX</tspan><tspan x="138.17" y="0" xml:space="preserve"> S</tspan><tspan class="cls-10" x="155.89" y="0">ITES</tspan></text><line class="cls-12" x1="349.55" y1="620.52" x2="280.28" y2="644.57"/></g></g></svg>