<svg xmlns="http://www.w3.org/2000/svg" viewBox="0 0 1253.59 762.19"><defs><style>.cls-1{font-size:28.58px;fill:#fff;}.cls-1,.cls-6,.cls-7{font-family:LucidaGrande-Bold, Lucida Grande;font-weight:700;}.cls-2,.cls-3{font-size:22.23px;}.cls-3{letter-spacing:0em;}.cls-4,.cls-5{fill:none;stroke:#fc805d;stroke-miterlimit:10;}.cls-4{stroke-width:1.37px;}.cls-5{stroke-width:1.89px;}.cls-6{font-size:24px;}.cls-6,.cls-7{fill:#fc805d;}.cls-7{font-size:18px;}</style></defs><g id="Layer_2" data-name="Layer 2"><g id="background"><text class="cls-1" transform="translate(59.86 24.62)">O<tspan class="cls-2" x="23.53" y="0">PERATIONAL </tspan><tspan x="176.93" y="0" xml:space="preserve"> H</tspan><tspan class="cls-3" x="208.65" y="0">OTELS</tspan><tspan x="281.27" y="0" xml:space="preserve"> &amp; C</tspan><tspan class="cls-2" x="341.75" y="0">LUSTER</tspan><tspan x="427.77" y="0" xml:space="preserve"> S</tspan><tspan class="cls-2" x="453.52" y="0">ITES</tspan></text></g><g id="numbers"><line class="cls-4" x1="53.21" y1="54.39" x2="1244.38" y2="54.39"/><line class="cls-4" x1="49.43" y1="273.3" x2="1240.6" y2="273.3"/><line class="cls-4" x1="49.43" y1="496.07" x2="1240.6" y2="496.07"/><line class="cls-5" x1="47.43" y1="714.35" x2="1241.38" y2="714.35"/><text class="cls-6" transform="translate(20.76 723.39)">0</text><text class="cls-6" transform="translate(0 503.39)">100</text><text class="cls-6" transform="translate(0 281.96)">200</text><text class="cls-6" transform="translate(2 62.96)">300</text><text class="cls-7" transform="translate(43.43 756.59) rotate(-45)">2016</text><text class="cls-7" transform="translate(239.4 756.59) rotate(-45)">2017</text><text class="cls-7" transform="translate(436.4 756.59) rotate(-45)">2018</text><text class="cls-7" transform="translate(627.4 756.59) rotate(-45)">2019</text><text class="cls-7" transform="translate(824.4 756.59) rotate(-45)">2020</text><text class="cls-7" transform="translate(1020.4 756.59) rotate(-45)">2021</text><text class="cls-7" transform="translate(1214.4 756.59) rotate(-45)">2022</text></g></g></svg>