<svg xmlns="http://www.w3.org/2000/svg" viewBox="0 0 683.88 654.52"><defs><style>.cls-1{font-size:38.44px;}.cls-1,.cls-12,.cls-9{fill:#fff;}.cls-1,.cls-6,.cls-7{font-family:LucidaGrande-Bold, Lucida Grande;font-weight:700;}.cls-2,.cls-3{font-size:29.9px;}.cls-3{letter-spacing:0em;}.cls-4{letter-spacing:0em;}.cls-13,.cls-14,.cls-5,.cls-8{fill:none;stroke-miterlimit:10;}.cls-5{stroke:#fc805d;}.cls-6{font-size:18px;}.cls-6,.cls-7{fill:#fc805d;}.cls-7{font-size:14px;}.cls-8{stroke:#96bd72;}.cls-13,.cls-14,.cls-8{stroke-width:5px;}.cls-9{font-size:20.73px;font-family:LucidaGrande, Lucida Grande;}.cls-10,.cls-11{font-size:16.12px;}.cls-10{letter-spacing:0em;}.cls-13{stroke:#80c2c3;}.cls-14{stroke:#cd614b;}</style></defs><g id="Layer_2" data-name="Layer 2"><g id="background"><text class="cls-1" transform="translate(10.32 33.11)">O<tspan class="cls-2" x="31.65" y="0">PERATIONAL</tspan><tspan x="228.12" y="0" xml:space="preserve"> H</tspan><tspan class="cls-2" x="270.79" y="0">OTELS</tspan><tspan x="368.46" y="0" xml:space="preserve"> &amp; C</tspan><tspan class="cls-3" x="449.81" y="0">LUSTER</tspan><tspan class="cls-4" x="565.51" y="0" xml:space="preserve"> S</tspan><tspan class="cls-3" x="600.14" y="0">ITES</tspan></text><line class="cls-5" x1="37.43" y1="68.34" x2="668.93" y2="68.34"/><line class="cls-5" x1="37.43" y1="245.25" x2="668.93" y2="245.25"/><line class="cls-5" x1="37.43" y1="427.02" x2="668.93" y2="427.02"/><line class="cls-5" x1="37.43" y1="606.3" x2="668.93" y2="606.3"/></g><g id="numbers"><text class="cls-6" transform="translate(22.76 611.34)">0</text><text class="cls-6" transform="translate(0 430.34)">100</text><text class="cls-6" transform="translate(0 249.91)">200</text><text class="cls-6" transform="translate(0 72.91)">300</text><text class="cls-7" transform="translate(23.43 650.17) rotate(-45)">2016</text><text class="cls-7" transform="translate(129.4 650.17) rotate(-45)">2017</text><text class="cls-7" transform="translate(237.4 650.17) rotate(-45)">2018</text><text class="cls-7" transform="translate(340.4 650.17) rotate(-45)">2019</text><text class="cls-7" transform="translate(444.4 650.17) rotate(-45)">2020</text><text class="cls-7" transform="translate(552.4 650.17) rotate(-45)">2021</text><text class="cls-7" transform="translate(653.4 650.17) rotate(-45)">2022</text></g><g id="cs-line"><path class="cls-8" d="M100.18,73.5h11l14,21,42,31,19.5,50.5,7,12,10,32,35,34,9,26,17,30,10,26,8,12,7,19,9,7,10,65,16,16,29,2,7,3h11l4,2h10l9,23,20-1,5,3h50l12,26,44,8,9,12,10,2,16,21,9,2,6,7h38l8,28h17"/></g><g id="cs-label"><text class="cls-9" transform="translate(289.64 109.42)">T<tspan class="cls-10" x="13.11" y="0">OTAL</tspan><tspan x="55.54" y="0" xml:space="preserve"> C</tspan><tspan class="cls-11" x="76.44" y="0">LUSTER</tspan><tspan x="134.02" y="0" xml:space="preserve"> S</tspan><tspan class="cls-11" x="151.74" y="0">ITES</tspan></text><line class="cls-12" x1="290.18" y1="113.5" x2="199.18" y2="172.5"/></g><g id="bedcobx-line"><polyline class="cls-13" points="100.18 553.5 110.18 553.5 114.18 549.5 143.18 549.5 153.68 557 169.68 557 178.68 564 184.68 565 191.68 572 205.68 572 221.68 576 229.68 569 242.68 569 260.68 575 353.68 576 360.68 579 371.68 579 375.68 580 387.68 580 394.68 586 485.68 586 489.68 589 544.68 589 550.68 593 638.68 593"/></g><g id="bedcobx-label"><text class="cls-9" transform="translate(274.38 537.47)">B<tspan class="cls-11" x="11.92" y="0">EDCO</tspan><tspan x="56.42" y="0" xml:space="preserve"> - B</tspan><tspan class="cls-10" x="93.45" y="0">RONX</tspan><tspan x="138.17" y="0" xml:space="preserve"> S</tspan><tspan class="cls-11" x="155.89" y="0">ITES</tspan></text><line class="cls-12" x1="272.18" y1="539.5" x2="202.92" y2="563.54"/></g><g id="htl-line"><polyline class="cls-14" points="98.68 426 104.68 407 110.68 391 122.68 374 133.68 364 140.68 367 149.68 371 157.68 380 160.68 384 168.68 384 174.68 391 177.68 394 203.68 399 210.68 394 232.68 394 238.68 399 251.68 399 261.68 402 275.68 402 289.68 410 304.58 409.65 309.68 416 320.68 416 325.68 419 349.68 419 354.68 422 358.68 438 363.68 445 369.68 447 372.68 448 388.68 448 394.68 452 414.68 452 421.68 457 441.68 457 448.68 458 458.68 458 463.68 457 469.68 457 474.68 458 480.68 457 484.68 453 490.68 440 492.68 436 496.68 437 501.68 442 523.68 471 537.68 471 543.68 477 549.68 481 557.68 484 572.68 484 579.68 482 585.68 485 599.68 485 605.68 488 615.68 488 623.68 489 632.68 493 641.68 502"/></g><g id="htl-label"><text class="cls-9" transform="translate(370.65 312.13)">H<tspan class="cls-10" x="15.23" y="0">OTELS</tspan></text><line class="cls-12" x1="369.18" y1="316.5" x2="338.18" y2="411.5"/></g></g></svg>