<svg xmlns="http://www.w3.org/2000/svg" viewBox="0 0 685.73 657.46"><defs><style>.cls-1,.cls-8{fill:none;stroke-miterlimit:10;}.cls-1{stroke:#000;stroke-width:3px;}.cls-2{font-size:38.44px;font-family:LucidaGrande-Bold, Lucida Grande;font-weight:700;}.cls-3,.cls-4{font-size:29.9px;}.cls-4{letter-spacing:0em;}.cls-5{letter-spacing:0em;}.cls-6{font-size:18px;}.cls-6,.cls-7,.cls-9{font-family:LucidaGrande, Lucida Grande;}.cls-7{font-size:14px;}.cls-8{stroke:#96bd72;stroke-width:5px;}.cls-9{font-size:20.73px;}.cls-10,.cls-11{font-size:16.12px;}.cls-10{letter-spacing:0em;}</style></defs><g id="Layer_2" data-name="Layer 2"><g id="background"><polyline class="cls-1" points="35.68 62 35.68 611 664.68 611"/><text class="cls-2" transform="translate(10.32 33.11)">O<tspan class="cls-3" x="31.65" y="0">PERATIONAL</tspan><tspan x="228.12" y="0" xml:space="preserve"> H</tspan><tspan class="cls-3" x="270.79" y="0">OTELS</tspan><tspan x="368.46" y="0" xml:space="preserve"> &amp; C</tspan><tspan class="cls-4" x="449.81" y="0">LUSTER</tspan><tspan class="cls-5" x="565.51" y="0" xml:space="preserve"> S</tspan><tspan class="cls-4" x="600.14" y="0">ITES</tspan></text></g><g id="numbers"><text class="cls-6" transform="translate(22.76 611.34)">0</text><text class="cls-6" transform="translate(0 430.34)">100</text><text class="cls-6" transform="translate(0 249.91)">200</text><text class="cls-6" transform="translate(0 72.91)">300</text><text class="cls-7" transform="translate(23.43 650.17) rotate(-45)">2016</text><text class="cls-7" transform="translate(129.4 650.17) rotate(-45)">2017</text><text class="cls-7" transform="translate(237.4 650.17) rotate(-45)">2018</text><text class="cls-7" transform="translate(340.4 650.17) rotate(-45)">2019</text><text class="cls-7" transform="translate(444.4 650.17) rotate(-45)">2020</text><text class="cls-7" transform="translate(552.4 650.17) rotate(-45)">2021</text><text class="cls-7" transform="translate(653.4 650.17) rotate(-45)">2022</text></g><g id="cs-line"><path class="cls-8" d="M100.18,73.5h11l14,21,42,31,19.5,50.5,7,12,10,32,35,34,9,26,17,30,10,26,8,12,7,19,9,7,10,65,16,16,29,2,7,3h11l4,2h10l9,23,20-1,5,3h50l12,26,44,8,9,12,10,2,16,21,9,2,6,7h38l8,28h17"/></g><g id="cs-label"><text class="cls-9" transform="translate(289.64 109.42)">T<tspan class="cls-10" x="13.11" y="0">OTAL</tspan><tspan x="55.54" y="0" xml:space="preserve"> C</tspan><tspan class="cls-11" x="76.44" y="0">LUSTER</tspan><tspan x="134.02" y="0" xml:space="preserve"> S</tspan><tspan class="cls-11" x="151.74" y="0">ITES</tspan></text><line x1="290.18" y1="113.5" x2="199.18" y2="172.5"/></g></g></svg>