<svg xmlns="http://www.w3.org/2000/svg" viewBox="0 0 1253.59 762.19"><defs><style>.cls-1{font-size:28.58px;}.cls-1,.cls-9{fill:#fff;}.cls-1,.cls-6,.cls-7{font-family:LucidaGrande-Bold, Lucida Grande;font-weight:700;}.cls-2,.cls-3{font-size:22.23px;}.cls-3{letter-spacing:0em;}.cls-12,.cls-4,.cls-5,.cls-8{fill:none;stroke-miterlimit:10;}.cls-4,.cls-5{stroke:#fc805d;}.cls-4{stroke-width:1.37px;}.cls-5{stroke-width:1.89px;}.cls-6{font-size:24px;}.cls-6,.cls-7{fill:#fc805d;}.cls-7{font-size:18px;}.cls-8{stroke:#96bd72;stroke-width:5px;}.cls-9{font-size:20.73px;font-family:LucidaGrande, Lucida Grande;}.cls-10,.cls-11{font-size:16.12px;}.cls-10{letter-spacing:0em;}.cls-12{stroke:#fff;stroke-width:2px;}</style></defs><g id="Layer_2" data-name="Layer 2"><g id="background"><text class="cls-1" transform="translate(59.86 24.62)">O<tspan class="cls-2" x="23.53" y="0">PERATIONAL </tspan><tspan x="176.93" y="0" xml:space="preserve"> H</tspan><tspan class="cls-3" x="208.65" y="0">OTELS</tspan><tspan x="281.27" y="0" xml:space="preserve"> &amp; C</tspan><tspan class="cls-2" x="341.75" y="0">LUSTER</tspan><tspan x="427.77" y="0" xml:space="preserve"> S</tspan><tspan class="cls-2" x="453.52" y="0">ITES</tspan></text></g><g id="numbers"><line class="cls-4" x1="53.21" y1="54.39" x2="1244.38" y2="54.39"/><line class="cls-4" x1="49.43" y1="273.3" x2="1240.6" y2="273.3"/><line class="cls-4" x1="49.43" y1="496.07" x2="1240.6" y2="496.07"/><line class="cls-5" x1="47.43" y1="714.35" x2="1241.38" y2="714.35"/><text class="cls-6" transform="translate(20.76 723.39)">0</text><text class="cls-6" transform="translate(0 503.39)">100</text><text class="cls-6" transform="translate(0 281.96)">200</text><text class="cls-6" transform="translate(2 62.96)">300</text><text class="cls-7" transform="translate(43.43 756.59) rotate(-45)">2016</text><text class="cls-7" transform="translate(239.4 756.59) rotate(-45)">2017</text><text class="cls-7" transform="translate(436.4 756.59) rotate(-45)">2018</text><text class="cls-7" transform="translate(627.4 756.59) rotate(-45)">2019</text><text class="cls-7" transform="translate(824.4 756.59) rotate(-45)">2020</text><text class="cls-7" transform="translate(1020.4 756.59) rotate(-45)">2021</text><text class="cls-7" transform="translate(1214.4 756.59) rotate(-45)">2022</text></g><g id="cs-line"><polyline class="cls-8" points="167.38 68.19 188.38 68.19 199.38 76.19 207.38 86.19 213.38 93.19 236.88 103.69 264.88 119.69 283.88 127.69 293.88 132.69 302.88 143.69 311.88 160.69 321.88 183.69 329.88 195.69 338.88 204.69 344.88 211.69 353.88 232.69 357.88 245.69 367.88 251.69 385.88 259.69 400.88 266.69 415.88 278.69 428.88 293.69 441.88 317.69 460.88 341.69 475.88 359.69 485.88 376.69 498.88 392.69 505.88 398.69 514.88 414.69 521.88 424.69 533.88 433.69 538.88 435.69 544.88 453.69 545.88 468.69 547.88 483.69 551.88 502.69 553.88 512.69 563.88 521.69 576.88 530.69 591.88 534.69 619.88 535.69 636.88 535.69 646.88 537.69 658.88 539.69 670.88 537.69 683.88 541.69 695.88 540.69 702.88 541.69 708.88 550.69 714.88 564.69 717.88 569.69 731.88 569.69 746.88 569.69 757.88 570.69 766.88 571.69 786.88 571.69 811.88 571.69 844.88 571.69 855.88 571.69 863.88 574.69 868.88 582.69 874.88 592.69 877.88 600.69 884.88 605.69 899.88 607.69 960.88 611.69 966.88 617.69 971.88 624.69 980.88 627.69 995.88 629.69 1007.88 640.69 1021.88 653.69 1038.88 658.69 1049.88 661.69 1054.88 667.69 1069.88 667.69 1088.88 667.69 1112.88 666.69 1123.88 667.69 1128.88 674.69 1133.88 688.69 1138.88 700.69 1169.88 700.69"/></g><g id="cs-label"><text class="cls-9" transform="translate(437.86 131.04)">T<tspan class="cls-10" x="13.11" y="0">OTAL</tspan><tspan x="55.54" y="0" xml:space="preserve"> C</tspan><tspan class="cls-11" x="76.44" y="0">LUSTER</tspan><tspan x="134.02" y="0" xml:space="preserve"> S</tspan><tspan class="cls-11" x="151.74" y="0">ITES</tspan></text><line class="cls-12" x1="438.4" y1="135.12" x2="347.4" y2="194.12"/></g></g></svg>