<svg xmlns="http://www.w3.org/2000/svg" viewBox="0 0 1253.59 762.19"><defs><style>.cls-1{font-size:28.58px;fill:#fff;}.cls-1,.cls-6,.cls-7{font-family:LucidaGrande-Bold, Lucida Grande;font-weight:700;}.cls-2,.cls-3{font-size:22.23px;}.cls-3{letter-spacing:0em;}.cls-4,.cls-5,.cls-8{fill:none;stroke-miterlimit:10;}.cls-4,.cls-5{stroke:#fc805d;}.cls-4{stroke-width:1.37px;}.cls-5{stroke-width:1.89px;}.cls-6{font-size:24px;}.cls-6,.cls-7{fill:#fc805d;}.cls-7{font-size:18px;}.cls-8{stroke:#cd614b;stroke-width:5px;}</style></defs><g id="Layer_2" data-name="Layer 2"><g id="background"><text class="cls-1" transform="translate(59.86 24.62)">O<tspan class="cls-2" x="23.53" y="0">PERATIONAL </tspan><tspan x="176.93" y="0" xml:space="preserve"> H</tspan><tspan class="cls-3" x="208.65" y="0">OTELS</tspan><tspan x="281.27" y="0" xml:space="preserve"> &amp; C</tspan><tspan class="cls-2" x="341.75" y="0">LUSTER</tspan><tspan x="427.77" y="0" xml:space="preserve"> S</tspan><tspan class="cls-2" x="453.52" y="0">ITES</tspan></text></g><g id="numbers"><line class="cls-4" x1="53.21" y1="54.39" x2="1244.38" y2="54.39"/><line class="cls-4" x1="49.43" y1="273.3" x2="1240.6" y2="273.3"/><line class="cls-4" x1="49.43" y1="496.07" x2="1240.6" y2="496.07"/><line class="cls-5" x1="47.43" y1="714.35" x2="1241.38" y2="714.35"/><text class="cls-6" transform="translate(20.76 723.39)">0</text><text class="cls-6" transform="translate(0 503.39)">100</text><text class="cls-6" transform="translate(0 281.96)">200</text><text class="cls-6" transform="translate(2 62.96)">300</text><text class="cls-7" transform="translate(43.43 756.59) rotate(-45)">2016</text><text class="cls-7" transform="translate(239.4 756.59) rotate(-45)">2017</text><text class="cls-7" transform="translate(436.4 756.59) rotate(-45)">2018</text><text class="cls-7" transform="translate(627.4 756.59) rotate(-45)">2019</text><text class="cls-7" transform="translate(824.4 756.59) rotate(-45)">2020</text><text class="cls-7" transform="translate(1020.4 756.59) rotate(-45)">2021</text><text class="cls-7" transform="translate(1214.4 756.59) rotate(-45)">2022</text></g><g id="htl-line"><path class="cls-8" d="M166.88,492.69l13-31,21-23,20-18,12-2,15,5,14,3,14,12,12,2,11,3,11,9,48,8,8-2,10-7,35,2,11,5,9,3h18l19,2h26l21,7,14,2,13,1,14,9,27,1,29,1,25,1,6,8,7,15,4,7,12,3,16,3,17-1,13,4,17,1,22-2,15,7h14l21-2,9,6,18-1,17-3,16,1,16-2,8-7,6-9,9-9,14,8,14,13,19,18,13,6,15-2,7,3,7,6,19,5,18,3,15,2,9-2,9-3,7,3,14,3h18l16,1,21,3,21,4,15,11"/></g></g></svg>