<svg xmlns="http://www.w3.org/2000/svg" viewBox="0 0 547.15 142.7"><defs><style>.cls-1{fill:none;stroke:#cd614b;stroke-miterlimit:10;stroke-width:5px;}</style></defs><g id="Layer_2" data-name="Layer 2"><g id="htl-line"><polyline class="cls-1" points="2.38 64.93 8.38 45.93 14.38 29.93 26.38 12.93 37.38 2.93 44.38 5.93 53.38 9.93 61.38 18.93 64.38 22.93 72.38 22.93 78.38 29.93 81.38 32.93 107.38 37.93 114.38 32.93 136.38 32.93 142.38 37.93 155.38 37.93 165.38 40.93 179.38 40.93 193.38 48.93 208.29 48.58 213.38 54.93 224.38 54.93 229.38 57.93 253.38 57.93 258.38 60.93 262.38 76.93 267.38 83.93 273.38 85.93 276.38 86.93 292.38 86.93 298.38 90.93 318.38 90.93 325.38 95.93 345.38 95.93 352.38 96.93 362.38 96.93 367.38 95.93 373.38 95.93 378.38 96.93 384.38 95.93 388.38 91.93 394.38 78.93 396.38 74.93 400.38 75.93 405.38 80.93 427.38 109.93 441.38 109.93 447.38 115.93 453.38 119.93 461.38 122.93 476.38 122.93 483.38 120.93 489.38 123.93 503.38 123.93 509.38 126.93 519.38 126.93 527.38 127.93 536.38 131.93 545.38 140.93"/></g></g></svg>