<svg xmlns="http://www.w3.org/2000/svg" viewBox="0 0 685.73 657.46"><defs><style>.cls-1,.cls-8{fill:none;stroke-miterlimit:10;}.cls-1{stroke:#000;stroke-width:3px;}.cls-2{font-size:38.44px;font-family:LucidaGrande-Bold, Lucida Grande;font-weight:700;}.cls-3,.cls-4{font-size:29.9px;}.cls-4{letter-spacing:0em;}.cls-5{letter-spacing:0em;}.cls-6{font-size:18px;}.cls-6,.cls-7,.cls-9{font-family:LucidaGrande, Lucida Grande;}.cls-7{font-size:14px;}.cls-8{stroke:#cd614b;stroke-width:5px;}.cls-9{font-size:20.73px;}.cls-10{font-size:16.12px;letter-spacing:0em;}</style></defs><g id="Layer_2" data-name="Layer 2"><g id="background"><polyline class="cls-1" points="35.68 62 35.68 611 664.68 611"/><text class="cls-2" transform="translate(10.32 33.11)">O<tspan class="cls-3" x="31.65" y="0">PERATIONAL</tspan><tspan x="228.12" y="0" xml:space="preserve"> H</tspan><tspan class="cls-3" x="270.79" y="0">OTELS</tspan><tspan x="368.46" y="0" xml:space="preserve"> &amp; C</tspan><tspan class="cls-4" x="449.81" y="0">LUSTER</tspan><tspan class="cls-5" x="565.51" y="0" xml:space="preserve"> S</tspan><tspan class="cls-4" x="600.14" y="0">ITES</tspan></text></g><g id="numbers"><text class="cls-6" transform="translate(22.76 611.34)">0</text><text class="cls-6" transform="translate(0 430.34)">100</text><text class="cls-6" transform="translate(0 249.91)">200</text><text class="cls-6" transform="translate(0 72.91)">300</text><text class="cls-7" transform="translate(23.43 650.17) rotate(-45)">2016</text><text class="cls-7" transform="translate(129.4 650.17) rotate(-45)">2017</text><text class="cls-7" transform="translate(237.4 650.17) rotate(-45)">2018</text><text class="cls-7" transform="translate(340.4 650.17) rotate(-45)">2019</text><text class="cls-7" transform="translate(444.4 650.17) rotate(-45)">2020</text><text class="cls-7" transform="translate(552.4 650.17) rotate(-45)">2021</text><text class="cls-7" transform="translate(653.4 650.17) rotate(-45)">2022</text></g><g id="htl-line"><polyline class="cls-8" points="98.68 426 104.68 407 110.68 391 122.68 374 133.68 364 140.68 367 149.68 371 157.68 380 160.68 384 168.68 384 174.68 391 177.68 394 203.68 399 210.68 394 232.68 394 238.68 399 251.68 399 261.68 402 275.68 402 289.68 410 304.58 409.65 309.68 416 320.68 416 325.68 419 349.68 419 354.68 422 358.68 438 363.68 445 369.68 447 372.68 448 388.68 448 394.68 452 414.68 452 421.68 457 441.68 457 448.68 458 458.68 458 463.68 457 469.68 457 474.68 458 480.68 457 484.68 453 490.68 440 492.68 436 496.68 437 501.68 442 523.68 471 537.68 471 543.68 477 549.68 481 557.68 484 572.68 484 579.68 482 585.68 485 599.68 485 605.68 488 615.68 488 623.68 489 632.68 493 641.68 502"/></g><g id="htl-label"><text class="cls-9" transform="translate(370.65 312.13)">H<tspan class="cls-10" x="15.23" y="0">OTELS</tspan></text><line x1="369.18" y1="316.5" x2="338.18" y2="411.5"/></g></g></svg>