<svg xmlns="http://www.w3.org/2000/svg" viewBox="0 0 529.93 1000.43"><defs><style>.cls-1{font-size:30.58px;}.cls-1,.cls-12,.cls-9{fill:#fff;}.cls-1,.cls-6,.cls-7{font-family:LucidaGrande-Bold, Lucida Grande;font-weight:700;}.cls-2,.cls-4{font-size:23.79px;}.cls-2{letter-spacing:0em;}.cls-3{letter-spacing:0em;}.cls-13,.cls-15,.cls-16,.cls-5,.cls-8{fill:none;stroke-miterlimit:10;}.cls-5{stroke:#fc805d;stroke-width:1.04px;}.cls-6{font-size:18px;}.cls-6,.cls-7{fill:#fc805d;}.cls-7{font-size:14px;}.cls-8{stroke:#96bd72;}.cls-13,.cls-16,.cls-8{stroke-width:5.19px;}.cls-9{font-size:20.73px;font-family:LucidaGrande, Lucida Grande;}.cls-10,.cls-11{font-size:16.12px;}.cls-10{letter-spacing:0em;}.cls-13{stroke:#80c2c3;}.cls-14{letter-spacing:0em;}.cls-15{stroke:#fff;stroke-width:0.98px;}.cls-16{stroke:#cd614b;}</style></defs><g id="Layer_2" data-name="Layer 2"><g id="htl-label"><text class="cls-1" transform="translate(0.32 26.34)">O<tspan class="cls-2" x="25.18" y="0">PERATIONAL</tspan><tspan class="cls-3" x="181.48" y="0" xml:space="preserve"> H</tspan><tspan class="cls-4" x="215.42" y="0">OTELS</tspan><tspan class="cls-3" x="293.12" y="0" xml:space="preserve"> &amp; C</tspan><tspan class="cls-2" x="357.84" y="0">LUSTER</tspan><tspan class="cls-3" x="449.88" y="0" xml:space="preserve"> S</tspan><tspan class="cls-4" x="477.44" y="0">ITES</tspan></text><line class="cls-5" x1="36.43" y1="67.34" x2="449.12" y2="67.34"/><line class="cls-5" x1="36.43" y1="359.51" x2="449.12" y2="359.51"/><line class="cls-5" x1="36.43" y1="659.71" x2="449.12" y2="659.71"/><line class="cls-5" x1="36.43" y1="955.8" x2="449.12" y2="955.8"/><text class="cls-6" transform="translate(23.75 962.34)">0</text><text class="cls-6" transform="translate(0 667.34)">100</text><text class="cls-6" transform="translate(0 363.91)">200</text><text class="cls-6" transform="translate(0 71.91)">300</text><text class="cls-7" transform="translate(25.4 996.08) rotate(-45) scale(1.03 1)">2016</text><text class="cls-7" transform="translate(93.99 995.08) rotate(-45) scale(1.03 1)">2017</text><text class="cls-7" transform="translate(163.9 994.07) rotate(-45) scale(1.03 1)">2018</text><text class="cls-7" transform="translate(230.58 993.1) rotate(-45) scale(1.03 1)">2019</text><text class="cls-7" transform="translate(297.9 992.13) rotate(-45) scale(1.03 1)">2020</text><text class="cls-7" transform="translate(367.81 991.12) rotate(-45) scale(1.03 1)">2021</text><text class="cls-7" transform="translate(433.19 990.17) rotate(-45) scale(1.03 1)">2022</text><path class="cls-8" d="M77.44,75.86h7.19l9.15,34.68q13.73,25.6,27.44,51.2L134,245.14,138.54,265l6.54,52.85L168,374l5.88,42.94,11.11,49.55,6.54,42.94,5.22,19.82,4.58,31.38,5.88,11.56,6.53,107.35,10.46,26.42,18.95,3.31,4.58,4.95h7.19l2.61,3.3H264l5.89,38L283,753.82l3.26,4.95h32.68l7.84,42.94,28.75,13.21,5.89,19.82,6.53,3.31,10.46,34.68,5.88,3.3,3.92,11.56H413l5.23,46.24h11.11"/><text class="cls-9" transform="translate(144.64 207.43)">T<tspan class="cls-10" x="13.11" y="0">OTAL</tspan><tspan x="55.54" y="0" xml:space="preserve"> C</tspan><tspan class="cls-11" x="76.44" y="0">LUSTER</tspan><tspan x="134.02" y="0" xml:space="preserve"> S</tspan><tspan class="cls-11" x="151.74" y="0">ITES</tspan></text><line class="cls-12" x1="195.12" y1="217.8" x2="152.18" y2="307.5"/><polyline class="cls-13" points="77.44 868.6 83.97 868.6 86.59 861.99 105.54 861.99 112.4 874.38 122.86 874.38 128.74 885.94 132.66 887.59 137.24 899.15 146.38 899.15 156.84 905.76 162.07 894.2 170.56 894.2 182.33 904.11 243.1 905.76 247.68 910.71 254.87 910.71 257.48 912.37 265.32 912.37 269.9 922.27 329.36 922.27 331.98 927.23 367.92 927.23 371.84 933.84 429.35 933.84"/><text class="cls-9" transform="translate(131.38 834.47)">B<tspan class="cls-11" x="11.92" y="0">EDCO</tspan><tspan x="56.42" y="0" xml:space="preserve"> - B</tspan><tspan class="cls-10" x="93.45" y="0">RONX</tspan><tspan class="cls-14" x="138.17" y="0" xml:space="preserve"> S</tspan><tspan class="cls-11" x="155.89" y="0">ITES</tspan></text><line class="cls-15" x1="175.12" y1="840.8" x2="141.92" y2="888.54"/><polyline class="cls-16" points="76.46 658.03 80.38 626.65 84.3 600.22 92.14 572.15 99.33 555.63 103.91 560.59 109.79 567.19 115.02 582.06 116.98 588.66 122.2 588.66 126.13 600.22 128.09 605.18 145.08 613.44 149.65 605.18 164.03 605.18 167.95 613.44 176.44 613.44 182.98 618.39 192.13 618.39 201.28 631.6 211.02 631.02 214.35 641.51 221.54 641.51 224.8 646.47 240.49 646.47 243.76 651.42 246.37 677.85 249.64 689.41 253.56 692.71 255.52 694.36 265.98 694.36 269.9 700.97 282.97 700.97 287.54 709.23 300.61 709.23 305.19 710.88 311.72 710.88 314.99 709.23 318.91 709.23 322.18 710.88 326.1 709.23 328.71 702.62 332.63 681.15 333.94 674.54 336.55 676.2 339.82 684.45 354.2 732.35 363.35 732.35 367.27 742.26 371.19 748.86 376.42 753.82 386.22 753.82 390.79 750.51 394.71 755.47 403.86 755.47 407.78 760.42 414.32 760.42 419.55 762.08 425.43 768.68 431.31 783.54"/><text class="cls-9" transform="translate(298.65 587.13)">H<tspan class="cls-10" x="15.23" y="0">OTELS</tspan></text><line class="cls-12" x1="297.18" y1="591.5" x2="266.18" y2="686.5"/></g></g></svg>