<svg xmlns="http://www.w3.org/2000/svg" viewBox="0 0 321.49 741.78"><defs><style>.cls-1{font-size:18.18px;fill:#fff;}.cls-1,.cls-7,.cls-8{font-family:LucidaGrande-Bold, Lucida Grande;font-weight:700;}.cls-2,.cls-3,.cls-4{font-size:14.14px;}.cls-2{letter-spacing:0em;}.cls-3{letter-spacing:0em;}.cls-5{letter-spacing:0em;}.cls-6{fill:none;stroke:#fc805d;stroke-miterlimit:10;stroke-width:0.72px;}.cls-7{font-size:12.54px;}.cls-7,.cls-8{fill:#fc805d;}.cls-8{font-size:9.75px;}</style></defs><g id="Layer_2" data-name="Layer 2"><g id="background"><text class="cls-1" transform="translate(0.23 15.66)">O<tspan class="cls-2" x="14.97" y="0">PERATIONAL</tspan><tspan x="107.91" y="0" xml:space="preserve"> H</tspan><tspan class="cls-3" x="128.09" y="0">OTELS</tspan><tspan x="174.29" y="0" xml:space="preserve"> &amp; C</tspan><tspan class="cls-4" x="212.76" y="0">LUSTER</tspan><tspan class="cls-5" x="267.49" y="0" xml:space="preserve"> S</tspan><tspan class="cls-4" x="283.87" y="0">ITES</tspan></text><line class="cls-6" x1="26.38" y1="91.85" x2="313.83" y2="91.85"/><line class="cls-6" x1="26.38" y1="295.36" x2="313.83" y2="295.36"/><line class="cls-6" x1="26.38" y1="504.46" x2="313.83" y2="504.46"/><line class="cls-6" x1="26.38" y1="710.69" x2="313.83" y2="710.69"/><text class="cls-7" transform="translate(16.54 715.25)">0</text><text class="cls-7" transform="translate(0 509.77)">100</text><text class="cls-7" transform="translate(0 298.42)">200</text><text class="cls-7" transform="translate(0 95.03)">300</text><text class="cls-8" transform="translate(15.69 738.75) rotate(-45) scale(1.03 1)">2016</text><text class="cls-8" transform="translate(63.47 738.06) rotate(-45) scale(1.03 1)">2017</text><text class="cls-8" transform="translate(112.16 737.35) rotate(-45) scale(1.03 1)">2018</text><text class="cls-8" transform="translate(158.6 736.68) rotate(-45) scale(1.03 1)">2019</text><text class="cls-8" transform="translate(205.5 736) rotate(-45) scale(1.03 1)">2020</text><text class="cls-8" transform="translate(254.19 735.3) rotate(-45) scale(1.03 1)">2021</text><text class="cls-8" transform="translate(299.73 734.64) rotate(-45) scale(1.03 1)">2022</text></g></g></svg>