<svg xmlns="http://www.w3.org/2000/svg" viewBox="0 0 321.49 741.78"><defs><style>.cls-1{font-size:18.18px;}.cls-1,.cls-10{fill:#fff;}.cls-1,.cls-7,.cls-8{font-family:LucidaGrande-Bold, Lucida Grande;font-weight:700;}.cls-2,.cls-3,.cls-4{font-size:14.14px;}.cls-2{letter-spacing:0em;}.cls-3{letter-spacing:0em;}.cls-5{letter-spacing:0em;}.cls-13,.cls-14,.cls-15,.cls-6,.cls-9{fill:none;stroke-miterlimit:10;}.cls-6{stroke:#fc805d;stroke-width:0.72px;}.cls-7{font-size:12.54px;}.cls-7,.cls-8{fill:#fc805d;}.cls-8{font-size:9.75px;}.cls-9{stroke:#96bd72;}.cls-14,.cls-15,.cls-9{stroke-width:3.62px;}.cls-10{font-size:14.44px;font-family:LucidaGrande, Lucida Grande;}.cls-11{font-size:11.23px;}.cls-12{letter-spacing:0em;}.cls-13{stroke:#fff;stroke-width:0.75px;}.cls-14{stroke:#80c2c3;}.cls-15{stroke:#cd614b;}</style></defs><g id="Layer_2" data-name="Layer 2"><g id="htl-label"><text class="cls-1" transform="translate(0.23 15.66)">O<tspan class="cls-2" x="14.97" y="0">PERATIONAL</tspan><tspan x="107.91" y="0" xml:space="preserve"> H</tspan><tspan class="cls-3" x="128.09" y="0">OTELS</tspan><tspan x="174.29" y="0" xml:space="preserve"> &amp; C</tspan><tspan class="cls-4" x="212.76" y="0">LUSTER</tspan><tspan class="cls-5" x="267.49" y="0" xml:space="preserve"> S</tspan><tspan class="cls-4" x="283.87" y="0">ITES</tspan></text><line class="cls-6" x1="26.38" y1="91.85" x2="313.83" y2="91.85"/><line class="cls-6" x1="26.38" y1="295.36" x2="313.83" y2="295.36"/><line class="cls-6" x1="26.38" y1="504.46" x2="313.83" y2="504.46"/><line class="cls-6" x1="26.38" y1="710.69" x2="313.83" y2="710.69"/><text class="cls-7" transform="translate(16.54 715.25)">0</text><text class="cls-7" transform="translate(0 509.77)">100</text><text class="cls-7" transform="translate(0 298.42)">200</text><text class="cls-7" transform="translate(0 95.03)">300</text><text class="cls-8" transform="translate(15.69 738.75) rotate(-45) scale(1.03 1)">2016</text><text class="cls-8" transform="translate(63.47 738.06) rotate(-45) scale(1.03 1)">2017</text><text class="cls-8" transform="translate(112.16 737.35) rotate(-45) scale(1.03 1)">2018</text><text class="cls-8" transform="translate(158.6 736.68) rotate(-45) scale(1.03 1)">2019</text><text class="cls-8" transform="translate(205.5 736) rotate(-45) scale(1.03 1)">2020</text><text class="cls-8" transform="translate(254.19 735.3) rotate(-45) scale(1.03 1)">2021</text><text class="cls-8" transform="translate(299.73 734.64) rotate(-45) scale(1.03 1)">2022</text><path class="cls-9" d="M51.94,97.78h5l6.37,24.16L82.44,157.6q4.44,29.06,8.87,58.09L94.5,229.5l4.55,36.81L115,305.42l4.1,29.91,7.74,34.51,4.55,29.91L135,413.56l3.19,21.85,4.1,8.06,4.55,74.77,7.28,18.41,13.2,2.3,3.19,3.45h5l1.82,2.3h4.56L186,571.16,195.1,570l2.27,3.45h22.76l5.47,29.91,20,9.2,4.1,13.8,4.55,2.31,7.28,24.15,4.1,2.3,2.73,8.06h17.3l3.64,32.21h7.74"/><text class="cls-10" transform="translate(98.75 189.42)">T<tspan class="cls-11" x="9.13" y="0">OTAL</tspan><tspan class="cls-12" x="38.69" y="0" xml:space="preserve"> C</tspan><tspan class="cls-11" x="53.25" y="0">LUSTER</tspan><tspan x="93.35" y="0" xml:space="preserve"> S</tspan><tspan class="cls-11" x="105.69" y="0">ITES</tspan></text><line class="cls-13" x1="133.91" y1="196.65" x2="104" y2="259.13"/><polyline class="cls-14" points="51.94 649.96 56.49 649.96 58.31 645.36 71.51 645.36 76.29 653.98 83.58 653.98 87.67 662.04 90.4 663.19 93.59 671.24 99.96 671.24 107.25 675.84 110.89 667.79 116.81 667.79 125 674.69 167.33 675.84 170.52 679.29 175.52 679.29 177.34 680.44 182.81 680.44 185.99 687.34 227.42 687.34 229.24 690.79 254.27 690.79 257 695.4 297.06 695.4"/><text class="cls-10" transform="translate(89.51 626.18)">B<tspan class="cls-11" x="8.3" y="0">EDCO</tspan><tspan x="39.29" y="0" xml:space="preserve"> - B</tspan><tspan class="cls-11" x="65.09" y="0">RONX</tspan><tspan x="96.24" y="0" xml:space="preserve"> S</tspan><tspan class="cls-11" x="108.58" y="0">ITES</tspan></text><line class="cls-13" x1="119.98" y1="630.59" x2="96.85" y2="663.85"/><polyline class="cls-15" points="51.26 503.29 53.99 481.43 56.72 463.02 62.18 443.47 67.19 431.96 70.38 435.41 74.47 440.02 78.11 450.37 79.48 454.97 83.12 454.97 85.85 463.02 87.22 466.47 99.05 472.23 102.24 466.47 112.25 466.47 114.98 472.23 120.9 472.23 125.45 475.68 131.83 475.68 138.2 484.88 144.98 484.47 147.3 491.78 152.31 491.78 154.59 495.23 165.51 495.23 167.79 498.68 169.61 517.09 171.88 525.14 174.61 527.44 175.98 528.59 183.26 528.59 185.99 533.2 195.1 533.2 198.28 538.95 207.39 538.95 210.57 540.1 215.13 540.1 217.4 538.95 220.13 538.95 222.41 540.1 225.14 538.95 226.96 534.35 229.69 519.39 230.6 514.79 232.42 515.94 234.7 521.69 244.71 555.05 251.09 555.05 253.82 561.95 256.55 566.56 260.19 570.01 267.02 570.01 270.2 567.71 272.94 571.16 279.31 571.16 282.04 574.61 286.59 574.61 290.23 575.76 294.33 580.36 298.43 590.71"/><text class="cls-10" transform="translate(206.02 453.9)">H<tspan class="cls-11" x="10.61" y="0">OTELS</tspan></text><line class="cls-13" x1="205" y1="456.95" x2="183.41" y2="523.12"/></g></g></svg>